<?xml version="1.0" encoding="UTF-8"?>
<svg id="_Слой_1" data-name="Слой 1" xmlns="http://www.w3.org/2000/svg" viewBox="0 0 214.82 26.29">
  <defs>
    <style>
      .cls-1 {
        fill: #fff;
        stroke-width: 0px;
      }
    </style>
  </defs>
  <polygon class="cls-1" points="193.09 16.17 193.09 0 181.08 0 181.08 26.29 214.82 26.29 214.82 16.17 193.09 16.17"/>
  <polygon class="cls-1" points="25.99 7.77 12 7.77 12 0 0 0 0 26.29 12 26.29 12 17.89 25.99 17.89 25.99 26.29 37.99 26.29 37.99 0 25.99 0 25.99 7.77"/>
  <polygon class="cls-1" points="60.43 0 67.38 12.07 75.57 26.29 90.17 26.29 90.18 26.29 75.05 0 60.43 0"/>
  <polygon class="cls-1" points="45.19 26.29 59.2 26.29 66.65 13.34 59.65 1.17 45.19 26.29"/>
  <polygon class="cls-1" points="158.73 0 158.03 0 144.14 0 151.08 12.07 159.27 26.29 173.87 26.29 173.88 26.29 158.75 0 158.73 0"/>
  <polygon class="cls-1" points="128.89 26.29 142.9 26.29 150.35 13.34 143.35 1.17 128.89 26.29"/>
  <polygon class="cls-1" points="132.02 0 117.42 0 109.24 14.22 102.29 26.29 116.19 26.29 116.89 26.29 116.9 26.29 132.04 0 132.02 0"/>
  <polygon class="cls-1" points="101.05 0 87.05 0 101.51 25.12 108.51 12.95 101.05 0"/>
</svg>